# xmcd CD database file
#
# Track frame offsets:
#	150
#	19390
#	45602
#	65572
#	97440
#	121012
#	134447
#	149122
#	168272
#	181407
#	208002
#	221437
#	240242
#	286440
#	302850
#	331535
#
# Disc length: 4608 seconds
#
# Revision: 2
# Processed by: cddbd v1.5PL3 Copyright (c) Steve Scherf et al.
# Submitted via: CDex 1.51
#
DISCID=f411fe10
DTITLE=Babatune Olatunji - Drums of Pasion and more Box 2/4
DYEAR=1961
DGENRE=Jazz
TTITLE0=Zungo
TTITLE1=Menu diyeh
TTITLE2=Gelewenwe
TTITLE3=Jolly mensah
TTITLE4=Eskum buka wa-ya
TTITLE5=Jolly mensah [new version]
TTITLE6=Lumumba
TTITLE7=Abana
TTITLE8=African spiritual
TTITLE9=World without end
TTITLE10=Eyo she-she
TTITLE11=Uhuru
TTITLE12=Hail the king
TTITLE13=Adofo
TTITLE14=Hail the king [remake]
TTITLE15=Mystery of love
EXTD=YEAR: 1961
EXTT0=
EXTT1=
EXTT2=
EXTT3=
EXTT4=
EXTT5=
EXTT6=
EXTT7=
EXTT8=
EXTT9=
EXTT10=
EXTT11=
EXTT12=
EXTT13=
EXTT14=
EXTT15=
PLAYORDER=
